<?xml version="1.0" encoding="UTF-8"?>
<!-- Generator: Adobe Illustrator 22.1.0, SVG Export Plug-In . SVG Version: 6.00 Build 0)  -->
<svg version="1.1" id="Layer_1" xmlns="http://www.w3.org/2000/svg" xmlns:xlink="http://www.w3.org/1999/xlink" x="0px" y="0px" viewBox="0 0 400 200" style="enable-background:new 0 0 400 200;" xml:space="preserve">
<style type="text/css">
	.st0{fill:#014225;}
	.st1{fill:#1C1C1B;}
</style>
<polygon class="st0" points="353.9,110.9 342.7,127.7 331.1,119.7 342.3,103.1 344.9,64.1 358.1,73.1 354.8,97.3 375.8,85 389,94   "/>
<path class="st0" d="M311.6,51.2l-25.9-8.9L268.1,93l13.2,4.6l6.5-18.6l10,3.4c6.2,2.2,5.3,7.7,3.8,13c-0.4,1.5-1.8,6.5-1.3,8.7  l13.1,4.5c-1.1-2.4,1.2-10,1.8-12.2c1.2-5,1.7-11.6-3.2-14.8v-0.1c5.9-0.4,10.8-4.4,12.3-10C328,61.4,320.6,54.2,311.6,51.2z   M310.5,68.8c-0.7,3.1-3.8,5-6.8,4.3c-0.5-0.1-0.9-0.2-1.3-0.5l-11-3.9l3.9-11.5l10.5,3.7C309.4,62.3,311.9,65,310.5,68.8z"/>
<path class="st0" d="M239.6,33.9l-14.2-1.6l-25.7,51.5l14.2,1.5l4.5-9.3l18.7,2l2.2,10.1l14.5,1.6L239.6,33.9z M222.8,66.1L231,48  l0,0l3.9,19.3L222.8,66.1z"/>
<polygon class="st0" points="193.4,42.4 177.4,43.4 180,85.2 166.1,86 163.4,44.3 147.5,45.3 146.8,33.2 192.7,30.4 "/>
<path class="st0" d="M137.2,61.4c-3.8-15.2-16.1-24.8-32.6-20.7S82,59.4,85.8,74.6s16.1,24.8,32.6,20.7  C134.9,91.1,141,76.5,137.2,61.4z M115.5,83.3c-8.8,2.2-14.1-4.6-16-12.3c-2-7.7-0.6-16.4,8.2-18.6c8.8-2.2,14.1,4.6,16,12.5  C125.6,72.4,124.1,81.2,115.5,83.3z"/>
<path class="st0" d="M75.1,94.4c-2.9-4.3-7.6-9-13.2-7.2v-0.1c3.5-4.6,3.8-11,0.7-15.9c-5.4-9.4-15.6-8.6-23.8-3.9L15,80.8  l26.6,46.8l12.1-7l-9.7-17.1l9.3-5.3c5.7-3.2,9.3,1.1,12.2,5.7c0.9,1.2,3.7,5.7,5.6,6.7l12.1-6.8C80.5,103.1,76.5,96.3,75.1,94.4z   M48.9,88.3l-10.3,5.7l-5.9-10.6l9.7-5.5c3.4-2,7.1-2,9,1.6c1.8,2.6,1.2,6.2-1.3,8.1C49.7,87.8,49.3,88.1,48.9,88.3z"/>
<path class="st1" d="M233.9,114.9c-6.6,0-18.7,8.6-23,11c-0.1-4.5-0.9-8.9-2.4-13.1c-1.8-3.5-5.3-2.8-8.2-2.8  c-6.4,0-6.2,19.2-6.2,19.2c-8.3-4.9-18.8-14.5-28-13.8c-26.8,3.8-50.5,15-74.9,24.9l-0.7,1.1h103.5c0,19.1,5.1,24,5.6,23.8h6.5  c1,0,4.9-7.2,4.9-23.7h97.2l1.8-0.7C285.5,130,250.8,114.9,233.9,114.9z M177.3,137.6l10.1-2.7c0.7-1.5-0.4-2.1-1.5-2.3  c-12.5-0.4-21.5,6.8-34.2,5.3c8.3-4.5,18.8-4.9,27.9-7.9c-0.4-2.2-2.9-2.4-4.5-2.2c-13.6,2.2-26,6.5-38.7,10.1h-8.2  c13-5.3,26.3-9.3,40-12.1v-1.1c-8.7-1.5-16.1,1.8-24.4,3.4c-9.8,3.1-19.2,7.2-29.3,9.8c-2.4,0.2-4.9,0.2-7.2,0  c19.6-7.9,40.6-18.8,61.4-16.6c10,1.7,21.1,10.3,29,16.3L177.3,137.6L177.3,137.6z M203.8,154.8c-0.9,3.5-1.2,6.6-3.1,6.5  c-1.8-1.5-3.4-11.6-3.4-15.3v-4.5c2.9,0,3.9-0.4,4.2-2.1c-0.1-3.3-1.7-6.2-4.3-8.3c0.4-2.3,0.2-6.8,0.6-9.7c0.1-4.5,2.2-8.3,3.3-8.3  c1.7,0,2.8,5.3,2.9,7.8C204.8,131.7,205.2,147.2,203.8,154.8z M285,137.8c-7.2-2.8-14.9-6.1-22.9-8.7c-9.3-2.9-19.3-6.1-29.9-3.9  c13.9,2.7,28.5,8.1,41.3,12.6l-11-0.2c-7.8-2.4-16-5-24-7.6c-5.4-1.7-13.2-4.2-17.4-0.4c7.3,1,14.5,2.7,21.5,5.3l7.1,3.1h-9  c-3.2-1-14.5-5.4-22.6-5.6c-1.1,0.2-4.4,1-2.1,3.3l8.4,2.4h-12.2c-1.3-3.1-0.1-6.7,2.8-8.3c9.4-6,13.8-10.9,33.1-7.6  c15.9,3.1,31.9,9.4,46.6,15.9L285,137.8L285,137.8z"/>
</svg>