<?xml version="1.0" encoding="UTF-8"?>
<!-- Generator: Adobe Illustrator 22.1.0, SVG Export Plug-In . SVG Version: 6.00 Build 0)  -->
<svg version="1.1" id="Layer_1" xmlns="http://www.w3.org/2000/svg" xmlns:xlink="http://www.w3.org/1999/xlink" x="0px" y="0px" viewBox="0 0 400 200" style="enable-background:new 0 0 400 200;" xml:space="preserve">
<style type="text/css">
	.st0{fill:#010101;}
</style>
<path class="st0" d="M198.6,11.4h3.1v122.9h-3.1V11.4z M142.3,86.4h-23.7l11.9-31.1L142.3,86.4z M163.5,108.4L136,36.6h-1.7  l-27.5,71.8h3.5l7.3-19h26.1l7.3,19L163.5,108.4L163.5,108.4z M237.5,108.3h3.8l20.6-30.5l19.8,30.5h14.5l-26.7-40.4l20.6-29.8h-3.9  l-19.1,27.5l-17.5-27.5h-13.7l24.4,36.6L237.5,108.3z"/>
<g>
	<path class="st0" d="M123.8,167.1l18.3,25.2h1.5v-27.5h-1.5v19.1l-14.5-19.1H123v27.5h0.8V167.1z M152.8,164.8h4.6v27.5h-4.6V164.8   z M322.2,167.1l18.3,25.2h1.5v-27.5h-1.5v19.1L326,164.8h-4.6v27.5h0.8V167.1z M38.9,177.4V166h2.3c4,0,5.7,2.5,5.7,5.7   c0,3.2-1.8,5.7-5.7,5.7L38.9,177.4L38.9,177.4z M48,192.1h5.2l-7.8-13.8c3.7-0.8,6.3-2.9,6.3-6.6c0-4.6-4.2-6.9-9.3-6.9h-8.2v27.3   h4.6v-13.5h1.7L48,192.1L48,192.1z M397,190.7h-12.2v-12.2h8.4V177h-8.4v-10.7H397v-1.5h-16.8v27.5H397V190.7z M202.4,190.7h-12.2   v-12.2h8.4V177h-8.4v-10.7h12.2v-1.5h-16.8v27.5h16.8V190.7z M268.8,164.8h-4.6v27.5h4.6v-13.7h11.4v13.7h4.6v-27.5h-4.6v13h-11.4   V164.8z M61.2,164.8v27.5h1.5v-25.2l9.2,24.4h1.5l8.4-24.4v25.2h4.6v-27.5h-4.6l-7.7,19.8l-7.6-19.8H61.2z M235.3,178.5   c0,7.8,5,14.3,11.9,14.3c4.2,0,7.1-2.4,8.6-4.6l-1-0.7c-1.4,2-3.9,4.2-7.2,4.2c-5.6,0-7.3-7.1-7.3-13.1s1.6-13.1,7.3-13.1   c3.3,0,5.8,2.2,7.2,4.2l1-0.7c-1.5-2.3-4.4-4.6-8.6-4.6C240.3,164.2,235.3,170.6,235.3,178.5 M355.3,178.5c0-6,1.6-13.1,7.3-13.1   c3.3,0,5.8,2.2,7.2,4.2l1-0.7c-1.5-2.3-4.4-4.6-8.6-4.6c-7,0-12,6.3-12,14.3c0,7.8,5.1,14.3,12.1,14.3c6.3,0,9.4-6.3,9.4-6.3v-5.1   h-8.4v1.2h3.8v5.3c0,1.6-1.6,3.8-4.6,3.8C357,191.5,355.3,184.4,355.3,178.5 M13.7,171.5l4.6,12.1H9.1L13.7,171.5z M21.6,192.1h5   l-10.7-27.9h-0.7L4.5,192.1h1.3l2.8-7.4h10.1L21.6,192.1z M103,171.5l4.6,12.1h-9.2L103,171.5z M110.9,192.1h5l-10.7-27.9h-0.7   l-10.7,27.9h1.3l2.8-7.4h10.1L110.9,192.1L110.9,192.1z M301.2,171.5l4.6,12.1h-9.2L301.2,171.5z M309.1,192.1h5l-10.7-27.9h-0.7   L292,192.1h1.3l2.8-7.4h10.1L309.1,192.1L309.1,192.1z M208.5,192.3h1.5l7.7-12.2l8.4,12.2h5.4l-10.7-16l8.4-11.4h-1.5l-7.7,10.7   l-6.9-10.7h-5.4l9.2,14.5L208.5,192.3z"/>
</g>
</svg>