<?xml version="1.0" encoding="UTF-8" standalone="no"?>
<!DOCTYPE svg PUBLIC "-//W3C//DTD SVG 20010904//EN" "http://www.w3.org/TR/2001/REC-SVG-20010904/DTD/svg10.dtd">
<svg version="1.0" xmlns="http://www.w3.org/2000/svg" width="2021.000000pt" height="728.000000pt" viewBox="0 0 2021.000000 728.000000" preserveAspectRatio="xMidYMid meet">

<g transform="translate(0.000000,728.000000) scale(0.100000,-0.100000)" fill="#000000" stroke="none">
<path d="M8385 6513 c-286 -14 -588 -84 -862 -199 -144 -60 -253 -119 -403 -219 -509 -338 -864 -843 -1013 -1440 -58 -232 -71 -349 -72 -615 0 -326 31 -528 126 -815 278 -839 1004 -1467 1883 -1630 372 -68 751 -55 1111 39 176 47 300 93 470 176 753 369 1263 1100 1354 1942 16 143 13 454 -4 598 -102 827 -599 1532 -1341 1903 -294 147 -610 232 -955 256 -139 10 -164 11 -294 4z m372 -1207 c479 -105 836 -485 940 -1003 27 -134 24 -424 -5 -560 -89 -411 -334 -732 -686 -899 -145 -69 -263 -95 -446 -101 -178 -6 -287 9 -435 58 -323 108 -588 369 -725 715 -99 248 -122 578 -60 840 121 512 497 881 978 959 109 18 338 13 439 -9z"/>
<path d="M13136 6509 c-657 -58 -1237 -485 -1426 -1049 -63 -189 -85 -421 -56 -608 43 -280 159 -496 381 -710 223 -215 487 -371 1015 -600 374 -162 521 -240 617 -326 199 -179 76 -439 -237 -498 -73 -14 -325 -4 -420 17 -255 55 -539 198 -716 359 l-62 56 -356 -475 -355 -474 69 -63 c541 -484 1494 -707 2231 -522 472 118 849 380 1064 739 200 334 240 767 102 1109 -103 258 -292 474 -587 671 -217 145 -390 233 -790 402 -558 235 -673 298 -751 406 -23 32 -29 50 -29 94 0 102 61 178 195 244 283 139 762 88 1068 -115 30 -20 56 -36 59 -36 6 0 671 895 676 909 9 28 -377 235 -572 306 -240 88 -515 146 -784 164 -170 12 -193 12 -336 0z"/>
<path d="M17285 6510 c-295 -26 -604 -132 -835 -286 -348 -232 -570 -551 -651 -937 -28 -132 -30 -351 -5 -480 86 -443 381 -769 965 -1066 97 -49 294 -141 437 -204 144 -64 295 -132 335 -152 202 -101 311 -188 349 -277 68 -159 -60 -331 -287 -384 -100 -24 -341 -14 -483 19 -242 57 -487 181 -676 345 l-71 60 -349 -465 c-192 -256 -350 -472 -352 -479 -2 -7 39 -47 90 -90 346 -288 822 -482 1338 -546 159 -19 520 -16 659 5 415 65 761 227 1029 481 276 263 422 599 422 972 0 539 -306 944 -975 1291 -161 83 -251 123 -610 275 -419 177 -565 260 -625 355 -73 114 -3 256 163 334 291 136 756 90 1057 -105 70 -46 74 -47 90 -29 32 33 660 884 660 894 0 12 -139 102 -250 162 -265 142 -621 252 -940 291 -161 19 -371 26 -485 16z"/>
<path d="M1480 4035 l0 -2366 1328 4 c1306 3 1328 3 1417 24 299 69 526 193 730 398 172 172 279 344 355 574 52 157 70 273 70 451 0 223 -39 405 -125 588 -112 236 -267 404 -514 559 -2 1 25 43 59 94 148 221 214 419 226 674 11 226 -36 447 -139 651 -64 127 -136 225 -246 334 -182 181 -385 290 -656 353 -88 21 -115 21 -1297 24 l-1208 4 0 -2366z m2120 1289 c91 -43 150 -100 196 -186 39 -73 39 -73 39 -188 0 -105 -2 -120 -28 -171 -53 -110 -147 -191 -256 -223 -46 -13 -119 -16 -453 -16 l-398 0 0 411 0 410 418 -3 417 -3 65 -31z m151 -1714 c78 -15 169 -62 226 -119 221 -221 157 -580 -127 -715 l-65 -31 -542 -3 -543 -3 0 441 0 440 499 0 c291 0 521 -4 552 -10z"/>
</g>
</svg>