<?xml version="1.0" encoding="UTF-8" standalone="no"?>
<!DOCTYPE svg PUBLIC "-//W3C//DTD SVG 20010904//EN" "http://www.w3.org/TR/2001/REC-SVG-20010904/DTD/svg10.dtd">
<svg version="1.0" xmlns="http://www.w3.org/2000/svg" width="2081.000000pt" height="320.000000pt" viewBox="0 0 2081.000000 320.000000" preserveAspectRatio="xMidYMid meet">

<g transform="translate(0.000000,320.000000) scale(0.100000,-0.100000)" fill="#000000" stroke="none">
<path d="M645 3186 c-259 -51 -451 -195 -560 -421 -66 -137 -80 -203 -79 -380 1 -134 4 -160 28 -240 68 -225 198 -379 401 -476 117 -56 182 -71 337 -76 275 -10 475 67 641 247 78 84 153 225 183 345 27 103 24 323 -5 429 -59 219 -203 401 -393 497 -106 53 -220 80 -358 85 -81 2 -150 -1 -195 -10z m290 -210 c209 -55 364 -224 409 -448 31 -151 14 -287 -54 -424 -96 -197 -270 -308 -480 -308 -313 0 -549 258 -550 600 0 271 173 514 411 578 69 19 199 20 264 2z"/>
<path d="M10838 3174 c-5 -4 -8 -49 -8 -101 l0 -93 95 0 95 0 0 -585 0 -585 -95 0 -95 0 0 -101 0 -100 388 4 c320 3 398 7 450 20 150 40 258 120 314 235 32 64 33 71 33 187 0 109 -2 125 -27 177 -33 71 -108 147 -178 183 l-53 27 29 17 c16 10 46 37 68 61 160 178 98 495 -117 599 -102 49 -141 53 -527 58 -201 3 -368 2 -372 -3z m732 -218 c92 -33 130 -93 130 -203 0 -72 -22 -134 -56 -165 -50 -44 -115 -61 -251 -66 l-133 -5 0 233 0 233 133 -6 c84 -3 148 -11 177 -21z m-30 -636 c152 -24 228 -98 238 -228 9 -126 -36 -205 -143 -254 -44 -20 -70 -23 -212 -26 l-163 -4 0 261 0 261 108 0 c59 0 136 -5 172 -10z"/>
<path d="M18185 2956 c-266 -62 -450 -238 -516 -494 -26 -103 -26 -271 1 -376 63 -246 254 -431 500 -482 114 -24 300 -15 406 20 278 90 454 343 454 650 0 134 -20 222 -75 334 -78 157 -214 272 -390 328 -100 32 -285 42 -380 20z m248 -181 c168 -35 298 -164 353 -350 12 -40 18 -91 17 -155 0 -113 -30 -212 -89 -297 -189 -275 -575 -269 -756 11 -191 296 -39 721 285 791 81 18 108 18 190 0z"/>
<path d="M2170 2865 l0 -85 90 0 90 0 0 -500 0 -500 -90 0 -90 0 0 -85 0 -85 495 0 495 0 0 309 c0 171 -3 312 -7 314 -5 2 -47 1 -95 -1 l-88 -4 0 -224 0 -224 -204 0 -203 0 -7 489 c-5 270 -5 495 -1 500 3 7 43 11 92 11 l86 0 -7 31 c-3 17 -6 56 -6 85 l0 54 -275 0 -275 0 0 -85z"/>
<path d="M3740 2865 l0 -85 68 0 69 0 6 -152 c4 -83 7 -308 7 -500 l0 -348 -75 0 -75 0 0 -85 0 -85 250 0 251 0 -3 83 -3 82 -72 3 -73 3 0 499 0 500 75 0 76 0 -3 83 -3 82 -247 3 -248 2 0 -85z"/>
<path d="M4780 2865 l0 -85 83 0 83 0 225 -592 225 -593 91 -3 c80 -2 93 0 101 15 6 10 101 263 212 563 111 300 208 560 215 577 l14 33 80 0 81 0 0 85 0 85 -260 0 -260 0 0 -85 0 -85 75 0 c41 0 75 -4 75 -9 0 -8 -229 -638 -300 -825 l-22 -58 -163 423 c-89 233 -165 434 -169 447 -7 22 -6 22 74 22 80 0 82 1 76 23 -3 12 -6 50 -6 85 l0 62 -265 0 -265 0 0 -85z"/>
<path d="M6730 2866 l0 -85 73 -3 72 -3 3 -497 2 -498 -75 0 -75 0 0 -85 0 -85 250 0 250 0 0 85 0 85 -75 0 -75 0 0 500 0 500 75 0 76 0 -3 83 -3 82 -247 3 -248 2 0 -84z"/>
<path d="M8117 2943 c-9 -8 -9 -66 0 -117 l6 -38 75 7 c63 6 74 5 69 -8 -3 -7 -85 -237 -183 -511 l-177 -496 -83 0 -84 0 0 -47 c0 -27 3 -65 6 -85 l7 -38 263 0 264 0 0 54 c0 29 -3 68 -6 85 l-6 31 -74 0 c-53 0 -74 4 -73 13 0 6 21 73 47 147 l47 135 239 0 239 0 44 -130 c24 -71 46 -138 49 -147 5 -16 -3 -18 -75 -18 -44 0 -82 -3 -84 -7 -2 -5 -2 -43 1 -85 l4 -78 259 0 259 0 0 85 0 85 -73 0 -73 0 -177 498 c-98 273 -177 500 -177 505 0 4 20 7 44 7 24 0 58 3 75 6 l31 7 0 73 0 74 -338 0 c-186 0 -342 -3 -345 -7z m433 -415 c46 -145 85 -269 88 -275 3 -10 -38 -13 -183 -13 -145 0 -186 3 -183 13 3 6 44 130 92 275 48 144 91 262 95 262 4 0 44 -118 91 -262z"/>
<path d="M12590 2865 l0 -85 85 0 85 0 0 -420 c0 -272 4 -438 11 -472 32 -150 130 -245 291 -283 83 -19 276 -20 351 0 130 34 224 111 268 221 24 59 24 61 27 507 l3 447 85 0 85 0 -3 83 -3 82 -262 3 -263 2 0 -85 0 -85 75 0 76 0 -3 -437 -3 -438 -27 -47 c-42 -71 -110 -101 -231 -101 -135 -1 -208 37 -247 127 -17 37 -19 83 -22 466 l-3 425 78 3 77 3 0 84 0 85 -265 0 -265 0 0 -85z"/>
<path d="M14416 2942 c-3 -6 -3 -44 1 -86 l6 -76 88 0 89 0 0 -500 0 -500 -89 0 c-50 0 -92 -4 -95 -8 -3 -4 -2 -43 1 -85 l6 -77 279 0 279 0 -3 83 -3 82 -87 3 -88 3 0 224 0 225 96 0 95 0 151 -310 151 -310 149 0 149 0 -3 83 -3 82 -80 3 -81 3 -117 235 c-65 129 -115 239 -112 245 4 5 12 9 18 9 31 0 121 53 161 95 65 67 89 136 84 251 -3 77 -7 99 -33 149 -37 73 -104 127 -195 157 -61 21 -87 22 -436 26 -234 2 -374 0 -378 -6z m748 -195 c52 -30 77 -65 83 -120 8 -66 -4 -113 -38 -151 -46 -53 -85 -63 -254 -67 l-150 -4 -3 183 -2 182 162 0 c150 0 166 -2 202 -23z"/>
<path d="M16090 2695 l0 -255 85 0 85 0 0 170 0 170 135 0 135 0 0 -500 0 -500 -85 0 -85 0 0 -85 0 -85 275 0 275 0 0 85 0 85 -85 0 -85 0 -2 475 c-1 261 -2 485 -2 498 -1 22 1 22 137 25 l137 3 0 -173 0 -173 85 3 85 3 -2 252 -3 252 -542 3 -543 2 0 -255z"/>
<path d="M19407 2944 c-9 -9 -9 -111 -1 -141 6 -22 11 -23 95 -23 l89 0 0 -162 c0 -90 3 -315 7 -500 l6 -338 -101 0 -102 0 0 -62 c0 -35 3 -73 6 -85 l6 -23 274 0 274 0 0 85 0 85 -94 0 -93 0 -8 471 c-4 259 -5 473 -2 475 6 6 34 -43 297 -521 106 -192 226 -410 267 -482 l75 -133 104 0 104 0 2 593 3 592 98 3 97 3 0 84 0 85 -274 0 c-151 0 -277 -3 -279 -7 -2 -5 -2 -43 1 -85 l4 -78 89 0 89 0 0 -432 0 -433 -38 65 c-21 36 -115 205 -209 375 -94 171 -206 373 -250 450 l-78 140 -226 3 c-124 1 -228 -1 -232 -4z"/>
<path d="M9889 2456 c-37 -25 -69 -85 -69 -130 0 -39 43 -108 80 -127 103 -56 230 17 230 131 0 120 -142 193 -241 126z"/>
<path d="M8045 847 c-266 -70 -403 -356 -287 -600 109 -231 390 -316 611 -184 69 42 126 106 165 187 25 54 31 80 34 156 5 113 -12 178 -69 263 -95 142 -293 220 -454 178z m204 -92 c107 -37 187 -128 217 -244 38 -150 -32 -311 -167 -386 -50 -28 -62 -30 -154 -30 -92 0 -104 2 -153 29 -138 77 -207 234 -168 386 29 115 109 207 214 245 50 18 160 18 211 0z"/>
<path d="M11725 846 c-81 -20 -144 -55 -204 -115 -165 -166 -171 -416 -14 -591 218 -243 626 -153 724 159 98 317 -187 625 -506 547z m240 -108 c63 -33 119 -89 153 -153 24 -45 27 -61 27 -155 0 -91 -3 -112 -25 -155 -114 -232 -436 -251 -575 -34 -114 178 -35 432 159 509 73 29 191 23 261 -12z"/>
<path d="M6680 430 l0 -410 310 0 311 0 -3 128 -3 127 -40 0 -40 0 -3 -87 -3 -88 -219 0 -220 0 0 370 0 370 -45 0 -45 0 0 -410z"/>
<path d="M9070 431 l0 -411 45 0 45 0 2 296 3 296 259 -293 c143 -162 263 -298 268 -304 4 -5 8 179 8 408 l0 417 -40 0 -40 0 -2 -301 -3 -301 -257 289 c-142 160 -264 296 -273 303 -13 11 -15 -31 -15 -399z"/>
<path d="M10240 429 l0 -411 208 4 207 3 67 32 c88 41 160 113 201 201 30 62 32 75 32 172 0 97 -2 110 -31 170 -35 73 -99 144 -165 183 -78 46 -146 57 -341 57 l-178 0 0 -411z m447 293 c67 -35 110 -78 142 -143 70 -141 39 -301 -79 -402 -64 -54 -115 -68 -277 -74 l-143 -6 0 327 0 328 158 -4 c139 -3 162 -6 199 -26z"/>
<path d="M12750 430 l0 -410 40 0 40 0 0 296 c0 189 4 294 10 292 5 -1 125 -133 266 -293 141 -160 260 -294 265 -300 5 -5 9 159 9 409 l0 417 -42 -3 -43 -3 -5 -294 -5 -294 -264 296 c-145 164 -265 297 -267 297 -2 0 -4 -184 -4 -410z"/>
</g>
</svg>